HIERARCHY
ROOT pelvis
{
	OFFSET 0.000000 0.000000 0.000000
	CHANNELS 6 Xposition Yposition Zposition Xrotation Yrotation Zrotation
	JOINT l_hip
	{
		OFFSET 0.195211 -0.245059 -0.022011
		CHANNELS 3 Xrotation Yrotation Zrotation
		JOINT l_knee
		{
			OFFSET 0.083896 -0.996307 -0.018298
			CHANNELS 3 Xrotation Yrotation Zrotation
			JOINT l_ankle
			{
				OFFSET -0.031606 -1.048662 -0.119000
				CHANNELS 3 Xrotation Yrotation Zrotation
				JOINT l_foot
				{
					OFFSET 0.063841 -0.149483 0.312863
					CHANNELS 3 Xrotation Yrotation Zrotation
					End Site
					{
						OFFSET 0.000000 0.000000 0.000000
					}
				}
			}
		}
	}
	JOINT r_hip
	{
		OFFSET -0.188785 -0.243354 -0.013119
		CHANNELS 3 Xrotation Yrotation Zrotation
		JOINT r_knee
		{
			OFFSET -0.098896 -1.013926 -0.025127
			CHANNELS 3 Xrotation Yrotation Zrotation
			JOINT r_ankle
			{
				OFFSET 0.038376 -1.049454 -0.114596
				CHANNELS 3 Xrotation Yrotation Zrotation
				JOINT r_foot
				{
					OFFSET -0.060300 -0.126955 0.322518
					CHANNELS 3 Xrotation Yrotation Zrotation
					End Site
					{
						OFFSET 0.000000 0.000000 0.000000
					}
				}
			}
		}
	}
	JOINT spine1
	{
		OFFSET -0.006861 0.282462 -0.060688
		CHANNELS 3 Xrotation Yrotation Zrotation
		JOINT spine2
		{
			OFFSET 0.009796 0.349212 -0.004686
			CHANNELS 3 Xrotation Yrotation Zrotation
			JOINT spine3
			{
				OFFSET 0.005545 0.134239 0.076232
				CHANNELS 3 Xrotation Yrotation Zrotation
				JOINT neck
				{
					OFFSET -0.005369 0.569656 -0.136135
					CHANNELS 3 Xrotation Yrotation Zrotation
					JOINT head
					{
						OFFSET 0.009621 0.170484 0.137338
						CHANNELS 3 Xrotation Yrotation Zrotation
						End Site
						{
							OFFSET 0.000000 0.000000 0.000000
						}
					}
				}
				JOINT l_collar
				{
					OFFSET 0.205981 0.322192 -0.100872
					CHANNELS 3 Xrotation Yrotation Zrotation
					JOINT l_shoulder
					{
						OFFSET 0.233388 0.086823 -0.019950
						CHANNELS 3 Xrotation Yrotation Zrotation
						JOINT l_elbow
						{
							OFFSET 0.687295 -0.032736 -0.075278
							CHANNELS 3 Xrotation Yrotation Zrotation
							JOINT l_wrist
							{
								OFFSET 0.651109 0.024639 0.000120
								CHANNELS 3 Xrotation Yrotation Zrotation
								JOINT l_hand
								{
									OFFSET 0.217934 -0.026487 -0.036124
									CHANNELS 3 Xrotation Yrotation Zrotation
									End Site
									{
										OFFSET 0.000000 0.000000 0.000000
									}
								}
							}
						}
					}
				}
				JOINT r_collar
				{
					OFFSET -0.210726 0.316244 -0.114374
					CHANNELS 3 Xrotation Yrotation Zrotation
					JOINT r_shoulder
					{
						OFFSET -0.244017 0.089684 -0.026814
						CHANNELS 3 Xrotation Yrotation Zrotation
						JOINT r_elbow
						{
							OFFSET -0.672913 -0.035979 -0.055153
							CHANNELS 3 Xrotation Yrotation Zrotation
							JOINT r_wrist
							{
								OFFSET -0.670689 0.023586 -0.009661
								CHANNELS 3 Xrotation Yrotation Zrotation
								JOINT r_hand
								{
									OFFSET -0.219937 -0.019827 -0.028502
									CHANNELS 3 Xrotation Yrotation Zrotation
									End Site
									{
										OFFSET 0.000000 0.000000 0.000000
									}
								}
							}
						}
					}
				}
			}
		}
	}
}
MOTION
Frames: 9
Frame Time: 0.016667
0.000000 0.000000 0.000000 0.000000 0.000000 0.000000 1.526738 12.514026 16.781172 46.573991 -8.735217 -6.437191 0.000000 0.000000 0.000000 0.000000 0.000000 0.000000 -2.277203 -9.438035 -29.108620 38.952583 3.335952 9.340067 0.000000 0.000000 0.000000 0.000000 0.000000 0.000000 20.617661 -0.177815 3.291075 9.706664 3.119850 -3.871336 -11.088317 -0.651917 -0.521989 0.404537 4.824921 -1.245394 -6.996072 6.016130 -17.710270 -12.298442 -18.164235 -37.996973 1.600816 -23.063860 16.666266 -27.196248 -42.948055 -9.693874 0.000000 0.000000 0.000000 0.000000 0.000000 0.000000 -19.094485 29.431048 41.468687 -27.278437 30.090204 -17.034953 -136.109891 -47.930944 -4.185724 0.000000 0.000000 0.000000 0.000000 0.000000 0.000000 
0.000000 0.000000 0.000000 0.000000 0.000000 0.000000 1.943478 12.857187 16.586239 45.375893 -8.572596 -6.389685 0.000000 0.000000 0.000000 0.000000 0.000000 0.000000 -2.087450 -9.615026 -28.946250 37.804191 3.175252 9.329181 0.000000 0.000000 0.000000 0.000000 0.000000 0.000000 20.540027 -0.165838 3.264523 9.541209 3.189922 -3.930248 -11.081051 -0.663152 -0.480695 0.550343 4.800511 -1.178734 -7.264334 6.188290 -17.540736 -12.021235 -17.444460 -37.803412 1.229806 -22.209897 16.937996 -27.648029 -43.233157 -9.633368 0.000000 0.000000 0.000000 0.000000 0.000000 0.000000 -18.798783 28.695630 41.188855 -27.203414 29.272307 -17.039864 -135.702474 -47.510693 -2.982032 0.000000 0.000000 0.000000 0.000000 0.000000 0.000000 
0.000000 0.000000 0.000000 0.000000 0.000000 0.000000 2.399352 13.225844 16.282687 44.108218 -8.340845 -6.400643 0.000000 0.000000 0.000000 0.000000 0.000000 0.000000 -1.942535 -9.775778 -28.878145 36.592000 3.050672 9.329847 0.000000 0.000000 0.000000 0.000000 0.000000 0.000000 20.364763 -0.150368 3.232061 9.444311 3.269504 -4.006119 -11.064080 -0.665231 -0.465512 0.704190 4.694364 -1.188167 -7.709588 6.336565 -17.437625 -11.753571 -16.707636 -37.739216 0.896459 -21.351320 17.388302 -28.344372 -43.397381 -9.795791 0.000000 0.000000 0.000000 0.000000 0.000000 0.000000 -18.489884 27.953741 41.068624 -27.054348 28.422628 -17.283902 -135.579424 -47.122448 -1.791118 0.000000 0.000000 0.000000 0.000000 0.000000 0.000000 
0.000000 0.000000 0.000000 0.000000 0.000000 0.000000 2.891185 13.586630 16.045906 42.851872 -8.196526 -6.370310 0.000000 0.000000 0.000000 0.000000 0.000000 0.000000 -1.700239 -9.994273 -28.795705 35.331925 2.904628 9.399140 0.000000 0.000000 0.000000 0.000000 0.000000 0.000000 20.242416 -0.133811 3.174594 9.354496 3.317073 -4.070251 -11.028046 -0.702919 -0.448882 0.830982 4.689085 -1.075159 -8.150074 6.377685 -17.275562 -11.470078 -15.924349 -37.591993 0.478564 -20.502281 17.768163 -28.989933 -43.595420 -9.832057 0.000000 0.000000 0.000000 0.000000 0.000000 0.000000 -18.181138 27.077373 40.846654 -26.831086 27.503492 -17.232169 -135.182569 -46.566275 -0.229319 0.000000 0.000000 0.000000 0.000000 0.000000 0.000000 
0.000000 0.000000 0.000000 0.000000 0.000000 0.000000 3.157149 13.968988 15.867009 41.598135 -7.986073 -6.358187 0.000000 0.000000 0.000000 0.000000 0.000000 0.000000 -1.637267 -10.129718 -28.745527 34.180287 2.681729 9.526462 0.000000 0.000000 0.000000 0.000000 0.000000 0.000000 20.012974 -0.134744 3.089744 9.244965 3.349223 -4.087737 -11.056255 -0.748126 -0.431736 0.770209 4.697801 -0.908317 -8.418610 6.344927 -17.221106 -11.124239 -15.195870 -37.380733 0.150858 -19.477224 18.145178 -28.456618 -43.867485 -9.077168 0.000000 0.000000 0.000000 0.000000 0.000000 0.000000 -17.882965 26.259751 40.638607 -26.956870 26.512809 -17.133542 -135.577539 -46.013652 0.628484 0.000000 0.000000 0.000000 0.000000 0.000000 0.000000 
0.000000 0.000000 0.000000 0.000000 0.000000 0.000000 3.488626 14.242382 15.696461 40.388205 -7.775743 -6.418193 0.000000 0.000000 0.000000 0.000000 0.000000 0.000000 -1.572053 -10.424976 -28.706830 33.053343 2.517579 9.595541 0.000000 0.000000 0.000000 0.000000 0.000000 0.000000 19.721856 -0.104520 3.019860 9.249781 3.368263 -4.077386 -11.057605 -0.721377 -0.345097 0.914854 4.421860 -1.060461 -8.972553 6.398954 -16.920223 -10.881878 -14.577871 -37.253418 -0.336300 -18.692098 18.510544 -30.229672 -43.687249 -10.065796 0.000000 0.000000 0.000000 0.000000 0.000000 0.000000 -17.534283 25.504912 40.577252 -27.237186 25.389698 -17.586459 -136.902418 -45.814716 0.711911 0.000000 0.000000 0.000000 0.000000 0.000000 0.000000 
0.000000 0.000000 0.000000 0.000000 0.000000 0.000000 3.497285 14.523170 15.657886 39.301506 -7.496501 -6.544812 0.000000 0.000000 0.000000 0.000000 0.000000 0.000000 -1.787113 -10.537955 -28.740636 32.161292 2.193940 9.777798 0.000000 0.000000 0.000000 0.000000 0.000000 0.000000 19.407718 -0.029649 2.903903 9.031481 3.457998 -4.064627 -11.141816 -0.693538 -0.282495 1.045855 4.177006 -1.043918 -9.375939 6.339907 -16.703720 -10.588848 -13.997933 -37.124677 -0.687682 -17.762248 18.708146 -29.745905 -43.714010 -9.218494 0.000000 0.000000 0.000000 0.000000 0.000000 0.000000 -17.113359 24.745086 40.398166 -27.841734 24.098982 -17.957377 -137.903691 -45.680276 0.646165 0.000000 0.000000 0.000000 0.000000 0.000000 0.000000 
0.000000 0.000000 0.000000 0.000000 0.000000 0.000000 3.750048 14.768826 15.458833 37.972897 -7.291004 -6.608404 0.000000 0.000000 0.000000 0.000000 0.000000 0.000000 -1.867870 -10.840367 -28.754751 31.114180 1.929100 9.935155 0.000000 0.000000 0.000000 0.000000 0.000000 0.000000 19.106224 0.000523 2.902797 8.773999 3.536612 -4.064979 -11.074056 -0.695481 -0.195520 1.262661 3.775271 -1.189146 -9.992730 6.437237 -16.389613 -10.313252 -13.242515 -36.989544 -1.234355 -17.123400 18.810428 -30.964930 -43.637816 -9.558507 0.000000 0.000000 0.000000 0.000000 0.000000 0.000000 -16.684195 23.875755 40.135711 -28.196080 23.022661 -18.489471 -138.778262 -45.610361 0.549839 0.000000 0.000000 0.000000 0.000000 0.000000 0.000000 
0.000000 0.000000 0.000000 0.000000 0.000000 0.000000 4.080430 15.047995 15.258840 36.638458 -7.160846 -6.647445 0.000000 0.000000 0.000000 0.000000 0.000000 0.000000 -1.822151 -11.063692 -28.676310 30.083926 1.612201 10.019107 0.000000 0.000000 0.000000 0.000000 0.000000 0.000000 19.000637 0.000332 2.933282 8.630261 3.538375 -4.078700 -11.069492 -0.704309 -0.125679 1.301576 3.411665 -1.346765 -10.587821 6.531525 -16.099160 -10.078496 -12.657518 -36.895655 -1.739099 -16.238991 19.022168 -31.314485 -43.533700 -9.118228 0.000000 0.000000 0.000000 0.000000 0.000000 0.000000 -16.306741 23.201242 39.835339 -28.494785 21.937251 -19.115506 -138.850648 -45.346875 0.899160 0.000000 0.000000 0.000000 0.000000 0.000000 0.000000 
